      <svg className="wave" xmlns="http://www.w3.org/2000/svg" viewBox="0 0 1440 320">
        <path fill="#34D399" fillOpacity="1" d="M0,160L80,133.3C160,107,320,53,480,58.7C640,64,800,128,960,144C1120,160,1280,128,1360,112L1440,96L1440,320L1360,320C1280,320,1120,320,960,320C800,320,640,320,480,320C320,320,160,320,80,320L0,320Z"></path>
        <path fill="#FFFFFF" fillOpacity="1" d="M0,32L48,53.3C96,75,192,117,288,128C384,139,480,117,576,106.7C672,96,768,53.3,864,69.3C960,85,1056,171,1152,181.3C1248,192,1344,128,1392,96L1440,64L1440,320L1392,320C1344,320,1248,320,1152,320C1056,320,960,320,864,320C768,320,672,320,576,320C480,320,384,320,288,320C192,320,96,320,48,320L0,320Z"></path>
        <path fill="#34D399" fillOpacity="1" d="M0,96L60,117.3C120,139,240,181,360,181.3C480,181,600,139,720,122.7C840,107,960,117,1080,144C1200,171,1320,213,1380,234.7L1440,256L1440,320L1380,320C1320,320,1200,320,1080,320C960,320,840,320,720,320C600,320,480,320,360,320C240,320,120,320,60,320L0,320Z"></path>
      </svg>


